<svg xmlns="http://www.w3.org/2000/svg" xmlns:xlink="http://www.w3.org/1999/xlink" width="500" zoomAndPan="magnify" viewBox="0 0 375 374.999991" height="500" preserveAspectRatio="xMidYMid meet" version="1.0"><defs><g/><clipPath id="7ad02abc08"><rect x="0" width="143" y="0" height="48"/></clipPath><clipPath id="e9bc790969"><path d="M 143.949219 110.496094 L 230.949219 110.496094 L 230.949219 204.851562 L 143.949219 204.851562 Z M 143.949219 110.496094 " clip-rule="nonzero"/></clipPath></defs><rect x="-37.5" width="450" fill="#ffffff" y="-37.499999" height="449.999989" fill-opacity="1"/><rect x="-37.5" width="450" fill="#000000" y="-37.499999" height="449.999989" fill-opacity="1"/><g transform="matrix(1, 0, 0, 1, 118, 204)"><g clip-path="url(#7ad02abc08)"><g fill="#d9d9d9" fill-opacity="1"><g transform="translate(1.155665, 38.492087)"><g><path d="M 7.9375 0.28125 C 5.8125 0.28125 4.191406 -0.375 3.078125 -1.6875 C 1.960938 -3 1.34375 -4.800781 1.21875 -7.09375 L 4.34375 -7.9375 C 4.445312 -6.3125 4.765625 -5 5.296875 -4 C 5.828125 -3 6.707031 -2.5 7.9375 -2.5 C 8.851562 -2.5 9.546875 -2.753906 10.015625 -3.265625 C 10.484375 -3.773438 10.71875 -4.507812 10.71875 -5.46875 C 10.71875 -6.507812 10.5 -7.375 10.0625 -8.0625 C 9.625 -8.75 8.925781 -9.507812 7.96875 -10.34375 L 3.71875 -14.09375 C 2.863281 -14.84375 2.242188 -15.644531 1.859375 -16.5 C 1.472656 -17.363281 1.28125 -18.421875 1.28125 -19.671875 C 1.28125 -21.523438 1.8125 -22.960938 2.875 -23.984375 C 3.9375 -25.003906 5.382812 -25.515625 7.21875 -25.515625 C 9.21875 -25.515625 10.726562 -24.984375 11.75 -23.921875 C 12.769531 -22.859375 13.382812 -21.210938 13.59375 -18.984375 L 10.59375 -18.171875 C 10.488281 -19.648438 10.203125 -20.789062 9.734375 -21.59375 C 9.265625 -22.394531 8.425781 -22.796875 7.21875 -22.796875 C 6.320312 -22.796875 5.632812 -22.5625 5.15625 -22.09375 C 4.675781 -21.625 4.4375 -20.929688 4.4375 -20.015625 C 4.4375 -19.265625 4.5625 -18.632812 4.8125 -18.125 C 5.0625 -17.613281 5.488281 -17.097656 6.09375 -16.578125 L 10.375 -12.84375 C 11.476562 -11.863281 12.359375 -10.800781 13.015625 -9.65625 C 13.671875 -8.507812 14 -7.207031 14 -5.75 C 14 -3.894531 13.4375 -2.425781 12.3125 -1.34375 C 11.1875 -0.257812 9.726562 0.28125 7.9375 0.28125 Z M 7.9375 0.28125 "/></g></g></g><g fill="#d9d9d9" fill-opacity="1"><g transform="translate(19.55628, 38.492087)"><g><path d="M 1.96875 -25.296875 L 11.78125 -25.296875 L 11.78125 -22.671875 L 5.5 -22.671875 L 5.5 -14.3125 L 10.59375 -14.3125 L 10.59375 -11.8125 L 5.5 -11.8125 L 5.5 -2.53125 L 11.84375 -2.53125 L 11.84375 0 L 1.96875 0 Z M 1.96875 -25.296875 "/></g></g></g><g fill="#d9d9d9" fill-opacity="1"><g transform="translate(35.895074, 38.492087)"><g><path d="M 2.375 -25.296875 L 5.84375 -25.296875 L 10.3125 -4.78125 L 14.8125 -25.296875 L 18.234375 -25.296875 L 18.703125 0 L 15.859375 0 L 15.578125 -18.359375 L 11.3125 0 L 9.3125 0 L 5.0625 -18.359375 L 4.78125 0 L 1.90625 0 Z M 2.375 -25.296875 "/></g></g></g><g fill="#d9d9d9" fill-opacity="1"><g transform="translate(60.137512, 38.492087)"><g><path d="M 1.96875 -25.296875 L 8.25 -25.296875 C 10.4375 -25.296875 12.023438 -24.703125 13.015625 -23.515625 C 14.003906 -22.328125 14.5 -20.585938 14.5 -18.296875 C 14.5 -16.242188 13.96875 -14.644531 12.90625 -13.5 C 11.84375 -12.351562 10.300781 -11.78125 8.28125 -11.78125 L 5.5 -11.78125 L 5.5 0 L 1.96875 0 Z M 7.125 -14.3125 C 8.164062 -14.3125 8.972656 -14.425781 9.546875 -14.65625 C 10.117188 -14.882812 10.53125 -15.273438 10.78125 -15.828125 C 11.03125 -16.390625 11.15625 -17.203125 11.15625 -18.265625 C 11.15625 -19.554688 11.0625 -20.503906 10.875 -21.109375 C 10.6875 -21.710938 10.316406 -22.140625 9.765625 -22.390625 C 9.210938 -22.640625 8.34375 -22.765625 7.15625 -22.765625 L 5.5 -22.765625 L 5.5 -14.3125 Z M 7.125 -14.3125 "/></g></g></g><g fill="#d9d9d9" fill-opacity="1"><g transform="translate(78.756808, 38.492087)"><g><path d="M 1.96875 -25.296875 L 7.0625 -25.296875 C 9.625 -25.296875 11.503906 -24.769531 12.703125 -23.71875 C 13.898438 -22.664062 14.5 -20.953125 14.5 -18.578125 C 14.5 -15.335938 13.457031 -13.375 11.375 -12.6875 L 14.96875 0 L 11.5625 0 L 8.25 -11.875 L 5.5 -11.875 L 5.5 0 L 1.96875 0 Z M 6.84375 -14.40625 C 8.363281 -14.40625 9.453125 -14.703125 10.109375 -15.296875 C 10.765625 -15.898438 11.09375 -16.992188 11.09375 -18.578125 C 11.09375 -19.617188 10.976562 -20.4375 10.75 -21.03125 C 10.519531 -21.625 10.113281 -22.0625 9.53125 -22.34375 C 8.945312 -22.625 8.125 -22.765625 7.0625 -22.765625 L 5.5 -22.765625 L 5.5 -14.40625 Z M 6.84375 -14.40625 "/></g></g></g><g fill="#d9d9d9" fill-opacity="1"><g transform="translate(98.59445, 38.492087)"><g><path d="M 2.15625 -25.296875 L 5.625 -25.296875 L 5.625 0 L 2.15625 0 Z M 2.15625 -25.296875 "/></g></g></g><g fill="#d9d9d9" fill-opacity="1"><g transform="translate(109.966128, 38.492087)"><g><path d="M 1.96875 -25.296875 L 4.375 -25.296875 L 11.5625 -8.5 L 11.5625 -25.296875 L 14.5 -25.296875 L 14.5 0 L 12.25 0 L 4.96875 -17.265625 L 4.96875 0 L 1.96875 0 Z M 1.96875 -25.296875 "/></g></g></g><g fill="#d9d9d9" fill-opacity="1"><g transform="translate(130.084931, 38.492087)"><g><path d="M 2.15625 -25.296875 L 5.625 -25.296875 L 5.625 0 L 2.15625 0 Z M 2.15625 -25.296875 "/></g></g></g></g></g><g fill="#00ffff" fill-opacity="1"><g transform="translate(141.360786, 261.824251)"><g><path d="M 1.015625 -7.75 L 6.21875 -7.75 L 6.21875 -6.640625 L 2.328125 -6.640625 L 2.328125 -4.328125 L 5.84375 -4.328125 L 5.84375 -3.21875 L 2.328125 -3.21875 L 2.328125 0 L 1.015625 0 Z M 1.015625 -7.75 "/></g></g></g><g fill="#00ffff" fill-opacity="1"><g transform="translate(150.565452, 261.824251)"><g><path d="M 2.171875 -3.171875 C 2.171875 -2.503906 2.351562 -1.976562 2.71875 -1.59375 C 3.09375 -1.207031 3.59375 -1.015625 4.21875 -1.015625 C 4.84375 -1.015625 5.332031 -1.203125 5.6875 -1.578125 C 6.050781 -1.960938 6.234375 -2.492188 6.234375 -3.171875 L 6.234375 -7.75 L 7.546875 -7.75 L 7.546875 -3.171875 C 7.546875 -2.503906 7.410156 -1.925781 7.140625 -1.4375 C 6.878906 -0.945312 6.5 -0.566406 6 -0.296875 C 5.5 -0.0351562 4.90625 0.09375 4.21875 0.09375 C 3.519531 0.09375 2.921875 -0.0351562 2.421875 -0.296875 C 1.921875 -0.566406 1.535156 -0.945312 1.265625 -1.4375 C 0.992188 -1.925781 0.859375 -2.503906 0.859375 -3.171875 L 0.859375 -7.75 L 2.171875 -7.75 Z M 2.171875 -3.171875 "/></g></g></g><g fill="#00ffff" fill-opacity="1"><g transform="translate(161.807795, 261.824251)"><g><path d="M 1.015625 -7.75 L 2.328125 -7.75 L 2.328125 -1.125 L 5.6875 -1.125 L 5.6875 0 L 1.015625 0 Z M 1.015625 -7.75 "/></g></g></g><g fill="#00ffff" fill-opacity="1"><g transform="translate(170.558416, 261.824251)"><g><path d="M 1.015625 -7.75 L 2.328125 -7.75 L 2.328125 -1.125 L 5.6875 -1.125 L 5.6875 0 L 1.015625 0 Z M 1.015625 -7.75 "/></g></g></g><g fill="#00ffff" fill-opacity="1"><g transform="translate(179.309037, 261.824251)"><g/></g></g><g fill="#00ffff" fill-opacity="1"><g transform="translate(185.136048, 261.824251)"><g><path d="M 5.734375 -5.953125 C 5.453125 -6.128906 5.175781 -6.269531 4.90625 -6.375 C 4.632812 -6.476562 4.375 -6.550781 4.125 -6.59375 C 3.882812 -6.644531 3.664062 -6.671875 3.46875 -6.671875 C 3.082031 -6.671875 2.773438 -6.59375 2.546875 -6.4375 C 2.316406 -6.289062 2.203125 -6.082031 2.203125 -5.8125 C 2.203125 -5.550781 2.273438 -5.34375 2.421875 -5.1875 C 2.578125 -5.03125 2.78125 -4.898438 3.03125 -4.796875 C 3.28125 -4.703125 3.550781 -4.609375 3.84375 -4.515625 C 4.144531 -4.429688 4.441406 -4.332031 4.734375 -4.21875 C 5.035156 -4.113281 5.3125 -3.976562 5.5625 -3.8125 C 5.8125 -3.644531 6.007812 -3.425781 6.15625 -3.15625 C 6.300781 -2.894531 6.375 -2.566406 6.375 -2.171875 C 6.375 -1.710938 6.25 -1.3125 6 -0.96875 C 5.75 -0.632812 5.40625 -0.375 4.96875 -0.1875 C 4.53125 -0.0078125 4.023438 0.078125 3.453125 0.078125 C 3.046875 0.078125 2.648438 0.0234375 2.265625 -0.078125 C 1.878906 -0.191406 1.519531 -0.335938 1.1875 -0.515625 C 0.851562 -0.703125 0.550781 -0.914062 0.28125 -1.15625 L 0.859375 -2.234375 C 1.117188 -1.992188 1.398438 -1.785156 1.703125 -1.609375 C 2.003906 -1.441406 2.304688 -1.3125 2.609375 -1.21875 C 2.910156 -1.132812 3.203125 -1.09375 3.484375 -1.09375 C 3.941406 -1.09375 4.296875 -1.179688 4.546875 -1.359375 C 4.804688 -1.535156 4.9375 -1.785156 4.9375 -2.109375 C 4.9375 -2.367188 4.859375 -2.578125 4.703125 -2.734375 C 4.546875 -2.890625 4.34375 -3.019531 4.09375 -3.125 C 3.851562 -3.226562 3.582031 -3.316406 3.28125 -3.390625 C 2.988281 -3.472656 2.691406 -3.566406 2.390625 -3.671875 C 2.085938 -3.785156 1.8125 -3.921875 1.5625 -4.078125 C 1.320312 -4.242188 1.125 -4.457031 0.96875 -4.71875 C 0.820312 -4.976562 0.75 -5.304688 0.75 -5.703125 C 0.75 -6.140625 0.863281 -6.519531 1.09375 -6.84375 C 1.332031 -7.164062 1.660156 -7.414062 2.078125 -7.59375 C 2.503906 -7.769531 3 -7.859375 3.5625 -7.859375 C 4.070312 -7.859375 4.5625 -7.78125 5.03125 -7.625 C 5.5 -7.476562 5.914062 -7.289062 6.28125 -7.0625 Z M 5.734375 -5.953125 "/></g></g></g><g fill="#00ffff" fill-opacity="1"><g transform="translate(194.861214, 261.824251)"><g><path d="M 0.09375 -7.75 L 6.3125 -7.75 L 6.3125 -6.640625 L 3.859375 -6.640625 L 3.859375 0 L 2.546875 0 L 2.546875 -6.640625 L 0.09375 -6.640625 Z M 0.09375 -7.75 "/></g></g></g><g fill="#00ffff" fill-opacity="1"><g transform="translate(204.110179, 261.824251)"><g><path d="M 3.4375 -7.75 L 4.78125 -7.75 L 8.171875 0 L 6.765625 0 L 4.0625 -6.4375 L 1.375 0 L 0.015625 0 Z M 1.71875 -2.90625 L 6.359375 -2.90625 L 6.359375 -1.796875 L 1.71875 -1.796875 Z M 1.71875 -2.90625 "/></g></g></g><g fill="#00ffff" fill-opacity="1"><g transform="translate(215.119956, 261.824251)"><g><path d="M 6.640625 -5.734375 C 6.359375 -6.046875 6.023438 -6.289062 5.640625 -6.46875 C 5.253906 -6.644531 4.863281 -6.734375 4.46875 -6.734375 C 4.09375 -6.734375 3.734375 -6.660156 3.390625 -6.515625 C 3.054688 -6.367188 2.757812 -6.164062 2.5 -5.90625 C 2.25 -5.65625 2.050781 -5.359375 1.90625 -5.015625 C 1.769531 -4.671875 1.703125 -4.300781 1.703125 -3.90625 C 1.703125 -3.507812 1.769531 -3.140625 1.90625 -2.796875 C 2.050781 -2.453125 2.25 -2.148438 2.5 -1.890625 C 2.757812 -1.628906 3.054688 -1.425781 3.390625 -1.28125 C 3.734375 -1.132812 4.09375 -1.0625 4.46875 -1.0625 C 4.863281 -1.0625 5.25 -1.144531 5.625 -1.3125 C 6 -1.476562 6.335938 -1.707031 6.640625 -2 L 7.40625 -1.1875 C 7.15625 -0.925781 6.863281 -0.695312 6.53125 -0.5 C 6.195312 -0.3125 5.851562 -0.164062 5.5 -0.0625 C 5.144531 0.0390625 4.78125 0.09375 4.40625 0.09375 C 3.84375 0.09375 3.316406 -0.00390625 2.828125 -0.203125 C 2.335938 -0.410156 1.910156 -0.695312 1.546875 -1.0625 C 1.179688 -1.425781 0.894531 -1.847656 0.6875 -2.328125 C 0.476562 -2.816406 0.375 -3.335938 0.375 -3.890625 C 0.375 -4.441406 0.476562 -4.953125 0.6875 -5.421875 C 0.894531 -5.898438 1.179688 -6.320312 1.546875 -6.6875 C 1.921875 -7.050781 2.351562 -7.332031 2.84375 -7.53125 C 3.34375 -7.726562 3.878906 -7.828125 4.453125 -7.828125 C 4.816406 -7.828125 5.175781 -7.78125 5.53125 -7.6875 C 5.894531 -7.59375 6.234375 -7.457031 6.546875 -7.28125 C 6.867188 -7.101562 7.15625 -6.890625 7.40625 -6.640625 Z M 6.640625 -5.734375 "/></g></g></g><g fill="#00ffff" fill-opacity="1"><g transform="translate(225.675688, 261.824251)"><g><path d="M 1.015625 -7.75 L 2.328125 -7.75 L 2.328125 -3.59375 L 6.03125 -7.75 L 7.5625 -7.75 L 2.328125 -2 L 2.328125 0 L 1.015625 0 Z M 4.421875 -4.625 L 7.765625 0 L 6.1875 0 L 3.5625 -3.578125 Z M 4.421875 -4.625 "/></g></g></g><g fill="#00ffff" fill-opacity="1"><g transform="translate(159.560004, 276.82425)"><g><path d="M 6.8125 -3.171875 C 6.539062 -2.503906 6.207031 -1.929688 5.8125 -1.453125 C 5.425781 -0.972656 5 -0.597656 4.53125 -0.328125 C 4.070312 -0.0664062 3.582031 0.0625 3.0625 0.0625 C 2.601562 0.0625 2.191406 -0.03125 1.828125 -0.21875 C 1.460938 -0.414062 1.171875 -0.675781 0.953125 -1 C 0.734375 -1.320312 0.625 -1.691406 0.625 -2.109375 C 0.625 -2.515625 0.71875 -2.859375 0.90625 -3.140625 C 1.101562 -3.421875 1.347656 -3.660156 1.640625 -3.859375 C 1.929688 -4.066406 2.242188 -4.25 2.578125 -4.40625 C 2.910156 -4.570312 3.222656 -4.738281 3.515625 -4.90625 C 3.816406 -5.070312 4.0625 -5.253906 4.25 -5.453125 C 4.4375 -5.660156 4.53125 -5.90625 4.53125 -6.1875 C 4.53125 -6.4375 4.441406 -6.644531 4.265625 -6.8125 C 4.097656 -6.976562 3.875 -7.0625 3.59375 -7.0625 C 3.28125 -7.0625 3.03125 -6.960938 2.84375 -6.765625 C 2.65625 -6.578125 2.5625 -6.347656 2.5625 -6.078125 C 2.5625 -5.796875 2.65625 -5.484375 2.84375 -5.140625 C 3.039062 -4.804688 3.332031 -4.421875 3.71875 -3.984375 C 4.101562 -3.546875 4.585938 -3.035156 5.171875 -2.453125 C 5.765625 -1.878906 6.460938 -1.207031 7.265625 -0.4375 L 6.609375 0.203125 C 5.898438 -0.484375 5.269531 -1.097656 4.71875 -1.640625 C 4.175781 -2.179688 3.707031 -2.660156 3.3125 -3.078125 C 2.914062 -3.503906 2.585938 -3.890625 2.328125 -4.234375 C 2.066406 -4.578125 1.875 -4.898438 1.75 -5.203125 C 1.625 -5.503906 1.5625 -5.796875 1.5625 -6.078125 C 1.5625 -6.410156 1.644531 -6.707031 1.8125 -6.96875 C 1.988281 -7.226562 2.222656 -7.429688 2.515625 -7.578125 C 2.816406 -7.734375 3.171875 -7.8125 3.578125 -7.8125 C 3.972656 -7.8125 4.316406 -7.738281 4.609375 -7.59375 C 4.898438 -7.457031 5.125 -7.265625 5.28125 -7.015625 C 5.445312 -6.773438 5.53125 -6.5 5.53125 -6.1875 C 5.53125 -5.832031 5.4375 -5.523438 5.25 -5.265625 C 5.070312 -5.003906 4.835938 -4.773438 4.546875 -4.578125 C 4.253906 -4.390625 3.941406 -4.210938 3.609375 -4.046875 C 3.285156 -3.890625 2.972656 -3.722656 2.671875 -3.546875 C 2.378906 -3.378906 2.140625 -3.1875 1.953125 -2.96875 C 1.773438 -2.75 1.6875 -2.492188 1.6875 -2.203125 C 1.6875 -1.941406 1.75 -1.707031 1.875 -1.5 C 2 -1.300781 2.171875 -1.144531 2.390625 -1.03125 C 2.609375 -0.914062 2.847656 -0.859375 3.109375 -0.859375 C 3.492188 -0.859375 3.863281 -0.976562 4.21875 -1.21875 C 4.582031 -1.457031 4.910156 -1.789062 5.203125 -2.21875 C 5.503906 -2.65625 5.765625 -3.164062 5.984375 -3.75 Z M 6.8125 -3.171875 "/></g></g></g><g fill="#00ffff" fill-opacity="1"><g transform="translate(169.739214, 276.82425)"><g/></g></g><g fill="#00ffff" fill-opacity="1"><g transform="translate(175.566224, 276.82425)"><g><path d="M 4.203125 -7.75 C 4.785156 -7.75 5.316406 -7.648438 5.796875 -7.453125 C 6.285156 -7.265625 6.707031 -7 7.0625 -6.65625 C 7.425781 -6.3125 7.707031 -5.898438 7.90625 -5.421875 C 8.101562 -4.953125 8.203125 -4.4375 8.203125 -3.875 C 8.203125 -3.3125 8.101562 -2.796875 7.90625 -2.328125 C 7.707031 -1.859375 7.425781 -1.445312 7.0625 -1.09375 C 6.707031 -0.75 6.28125 -0.476562 5.78125 -0.28125 C 5.289062 -0.09375 4.753906 0 4.171875 0 L 1.015625 0 L 1.015625 -7.75 Z M 4.234375 -1.125 C 4.609375 -1.125 4.957031 -1.1875 5.28125 -1.3125 C 5.601562 -1.445312 5.882812 -1.640625 6.125 -1.890625 C 6.363281 -2.140625 6.550781 -2.429688 6.6875 -2.765625 C 6.820312 -3.097656 6.890625 -3.460938 6.890625 -3.859375 C 6.890625 -4.265625 6.816406 -4.632812 6.671875 -4.96875 C 6.535156 -5.3125 6.34375 -5.609375 6.09375 -5.859375 C 5.851562 -6.109375 5.566406 -6.300781 5.234375 -6.4375 C 4.910156 -6.570312 4.554688 -6.640625 4.171875 -6.640625 L 2.328125 -6.640625 L 2.328125 -1.125 Z M 4.234375 -1.125 "/></g></g></g><g fill="#00ffff" fill-opacity="1"><g transform="translate(186.985756, 276.82425)"><g><path d="M 3.4375 -7.75 L 4.78125 -7.75 L 8.171875 0 L 6.765625 0 L 4.0625 -6.4375 L 1.375 0 L 0.015625 0 Z M 1.71875 -2.90625 L 6.359375 -2.90625 L 6.359375 -1.796875 L 1.71875 -1.796875 Z M 1.71875 -2.90625 "/></g></g></g><g fill="#00ffff" fill-opacity="1"><g transform="translate(197.995533, 276.82425)"><g><path d="M 0.09375 -7.75 L 6.3125 -7.75 L 6.3125 -6.640625 L 3.859375 -6.640625 L 3.859375 0 L 2.546875 0 L 2.546875 -6.640625 L 0.09375 -6.640625 Z M 0.09375 -7.75 "/></g></g></g><g fill="#00ffff" fill-opacity="1"><g transform="translate(207.244498, 276.82425)"><g><path d="M 3.4375 -7.75 L 4.78125 -7.75 L 8.171875 0 L 6.765625 0 L 4.0625 -6.4375 L 1.375 0 L 0.015625 0 Z M 1.71875 -2.90625 L 6.359375 -2.90625 L 6.359375 -1.796875 L 1.71875 -1.796875 Z M 1.71875 -2.90625 "/></g></g></g><g clip-path="url(#e9bc790969)"><path fill="#ff3131" d="M 207.898438 173.144531 C 206.964844 173.757812 206.003906 174.265625 205.011719 174.691406 C 202.183594 175.96875 199.160156 176.609375 196.085938 176.609375 C 194.644531 176.609375 193.308594 176.476562 192.054688 176.289062 C 192 176.371094 191.972656 176.449219 191.917969 176.527344 L 197.984375 182.335938 C 198.4375 182.042969 199 181.859375 199.589844 181.859375 C 200.042969 181.859375 200.472656 181.964844 200.84375 182.148438 Z M 211.027344 142.027344 C 211.5625 142.027344 212.070312 142.1875 212.496094 142.425781 L 225.699219 128.199219 L 225.644531 128.148438 L 199.988281 137.949219 C 199.964844 138.058594 199.9375 138.191406 199.910156 138.324219 C 201.484375 138.5625 203.007812 138.992188 204.480469 139.601562 C 206.1875 140.324219 207.847656 141.28125 209.367188 142.535156 C 209.851562 142.214844 210.410156 142.027344 211.027344 142.027344 Z M 213.429688 143.277344 C 213.753906 143.757812 213.941406 144.320312 213.941406 144.929688 C 213.941406 146.53125 212.628906 147.835938 211.027344 147.835938 C 209.425781 147.835938 208.140625 146.53125 208.140625 144.929688 C 208.140625 144.398438 208.273438 143.890625 208.515625 143.464844 C 207.097656 142.320312 205.574219 141.414062 203.972656 140.773438 C 202.5 140.136719 200.925781 139.734375 199.269531 139.523438 C 198.734375 140.109375 197.957031 140.480469 197.101562 140.480469 C 196.167969 140.480469 195.339844 140.054688 194.804688 139.363281 C 189.835938 139.65625 185.933594 141.546875 183.152344 144.453125 C 181.203125 146.476562 179.8125 149.007812 178.984375 151.859375 C 179.972656 152.3125 180.667969 153.324219 180.667969 154.46875 C 180.667969 155.960938 179.546875 157.160156 178.101562 157.347656 C 178.101562 157.667969 178.101562 157.957031 178.101562 158.277344 C 178.101562 160.332031 178.421875 162.300781 179.039062 164.167969 C 179.199219 164.140625 179.382812 164.113281 179.570312 164.113281 C 181.175781 164.113281 182.484375 165.421875 182.484375 167.019531 C 182.484375 167.789062 182.164062 168.507812 181.65625 169.042969 C 182.109375 169.601562 182.59375 170.160156 183.152344 170.667969 C 184.25 171.734375 185.558594 172.640625 187.027344 173.386719 C 187.5625 172.613281 188.445312 172.132812 189.433594 172.132812 C 191.035156 172.132812 192.347656 173.414062 192.347656 175.011719 L 192.347656 175.039062 C 193.523438 175.222656 194.75 175.328125 196.085938 175.328125 C 198.972656 175.328125 201.832031 174.742188 204.503906 173.546875 C 206.296875 172.746094 208.007812 171.679688 209.582031 170.347656 C 209.316406 169.921875 209.183594 169.417969 209.183594 168.855469 C 209.183594 167.257812 210.464844 165.953125 212.070312 165.953125 C 213.671875 165.953125 214.980469 167.257812 214.980469 168.855469 C 214.980469 169.441406 214.792969 170.003906 214.5 170.457031 L 230.800781 187.507812 C 231.042969 187.773438 231.015625 188.171875 230.777344 188.414062 C 226.445312 192.273438 221.742188 195.472656 216.773438 197.894531 C 216.824219 198.109375 216.824219 198.296875 216.824219 198.507812 C 216.824219 200.105469 215.542969 201.414062 213.941406 201.414062 C 212.921875 201.414062 212.042969 200.90625 211.535156 200.132812 C 206.164062 202.078125 200.550781 203.117188 194.859375 203.117188 C 192.828125 203.117188 190.824219 203.039062 188.84375 202.878906 C 188.472656 204.023438 187.375 204.878906 186.09375 204.878906 C 184.570312 204.878906 183.3125 203.679688 183.179688 202.1875 C 180.054688 201.652344 176.980469 200.90625 174.039062 199.894531 C 173.53125 200.691406 172.625 201.226562 171.609375 201.226562 C 170.003906 201.226562 168.722656 199.921875 168.722656 198.324219 C 168.722656 198.136719 168.722656 197.949219 168.777344 197.761719 C 165.007812 195.976562 161.558594 193.742188 158.511719 190.96875 C 157.925781 190.4375 157.363281 189.875 156.804688 189.316406 C 156.402344 189.53125 155.894531 189.664062 155.386719 189.664062 C 153.785156 189.664062 152.5 188.386719 152.5 186.789062 C 152.5 186.066406 152.742188 185.425781 153.167969 184.921875 C 148.386719 178.152344 145.523438 169.308594 145.523438 158.09375 C 145.523438 157.160156 145.550781 156.199219 145.578125 155.269531 C 144.644531 154.949219 143.949219 154.042969 143.949219 152.976562 C 143.949219 151.78125 144.859375 150.765625 146.007812 150.605469 C 146.621094 146.078125 147.796875 142 149.402344 138.324219 C 148.625 137.738281 148.089844 136.777344 148.089844 135.714844 C 148.089844 133.902344 149.5625 132.4375 151.378906 132.4375 C 151.78125 132.4375 152.152344 132.515625 152.5 132.621094 C 154.265625 129.90625 156.347656 127.453125 158.675781 125.296875 C 164.472656 119.859375 171.796875 116.265625 179.679688 114.320312 C 179.679688 112.722656 180.988281 111.414062 182.59375 111.414062 C 183.792969 111.414062 184.835938 112.160156 185.265625 113.226562 C 188.257812 112.773438 191.304688 112.5625 194.324219 112.5625 C 194.644531 112.5625 194.964844 112.5625 195.257812 112.5625 C 195.609375 111.335938 196.726562 110.429688 198.066406 110.429688 C 199.5625 110.429688 200.765625 111.546875 200.953125 112.988281 C 205.121094 113.492188 209.234375 114.53125 213.136719 116.078125 C 217.949219 117.996094 222.464844 120.660156 226.445312 124.148438 C 226.898438 123.832031 227.460938 123.644531 228.074219 123.644531 C 229.679688 123.644531 230.988281 124.949219 230.988281 126.546875 C 230.988281 128.148438 229.679688 129.453125 228.074219 129.453125 C 227.542969 129.453125 227.035156 129.292969 226.605469 129.050781 Z M 225.21875 126.976562 L 225.191406 126.839844 L 210.199219 125.109375 C 209.796875 126.253906 208.699219 127.054688 207.445312 127.054688 C 206.992188 127.054688 206.589844 126.949219 206.214844 126.789062 L 199.320312 135.738281 C 199.5625 136.007812 199.722656 136.300781 199.828125 136.644531 Z M 225.324219 125.589844 C 225.402344 125.402344 225.484375 125.242188 225.5625 125.082031 C 221.714844 121.699219 217.335938 119.089844 212.683594 117.25 C 208.863281 115.757812 204.878906 114.746094 200.816406 114.238281 C 200.496094 115.253906 199.589844 116.023438 198.492188 116.183594 L 197.15625 134.699219 C 197.585938 134.699219 197.960938 134.808594 198.332031 134.96875 L 205.199219 126.015625 C 204.800781 125.507812 204.53125 124.871094 204.53125 124.148438 C 204.53125 122.550781 205.84375 121.273438 207.445312 121.273438 C 208.941406 121.273438 210.171875 122.390625 210.332031 123.855469 Z M 197.234375 116.105469 C 196.648438 115.917969 196.140625 115.570312 195.792969 115.117188 L 186.304688 119.675781 L 195.152344 135.445312 C 195.367188 135.234375 195.605469 135.074219 195.875 134.96875 Z M 195.234375 113.972656 C 195.234375 113.945312 195.207031 113.894531 195.207031 113.839844 C 194.914062 113.839844 194.617188 113.839844 194.324219 113.839844 C 191.359375 113.839844 188.417969 114.027344 185.480469 114.453125 C 185.453125 115.253906 185.078125 115.972656 184.515625 116.476562 L 185.691406 118.554688 Z M 183.421875 117.089844 C 183.152344 117.171875 182.886719 117.195312 182.59375 117.195312 C 182.164062 117.195312 181.738281 117.117188 181.363281 116.929688 L 176.953125 122.660156 L 177.007812 122.738281 L 184.542969 119.113281 Z M 180.375 116.15625 C 180.214844 115.972656 180.054688 115.757812 179.945312 115.542969 C 172.277344 117.4375 165.167969 120.953125 159.53125 126.230469 C 157.3125 128.308594 155.308594 130.652344 153.570312 133.289062 C 153.730469 133.421875 153.890625 133.582031 154.023438 133.769531 L 171.902344 125.1875 C 171.847656 124.976562 171.820312 124.761719 171.820312 124.523438 C 171.820312 122.925781 173.132812 121.621094 174.734375 121.621094 C 175.164062 121.621094 175.589844 121.726562 175.964844 121.886719 Z M 177.566406 123.855469 C 177.59375 124.070312 177.621094 124.3125 177.621094 124.523438 C 177.621094 125.800781 176.792969 126.894531 175.644531 127.269531 L 176.339844 134.089844 C 177.863281 134.222656 179.089844 135.417969 179.277344 136.9375 L 194.214844 137.925781 C 194.191406 137.820312 194.191406 137.683594 194.191406 137.578125 C 194.191406 137.230469 194.242188 136.914062 194.351562 136.621094 L 185.183594 120.207031 Z M 174.386719 127.402344 C 173.585938 127.292969 172.917969 126.894531 172.4375 126.308594 L 154.558594 134.886719 C 154.613281 135.019531 154.636719 135.152344 154.636719 135.3125 L 172.835938 136.511719 C 173.132812 135.417969 173.984375 134.542969 175.082031 134.222656 Z M 176.847656 157.238281 C 176.097656 157 175.511719 156.46875 175.164062 155.777344 L 162.230469 159 L 177.21875 165.339844 C 177.382812 165.074219 177.621094 164.859375 177.863281 164.671875 C 177.167969 162.648438 176.820312 160.492188 176.820312 158.277344 C 176.820312 157.933594 176.847656 157.585938 176.847656 157.238281 Z M 174.839844 154.546875 L 174.839844 154.46875 C 174.839844 154.070312 174.921875 153.695312 175.082031 153.351562 L 170.058594 149.78125 C 169.496094 150.3125 168.722656 150.660156 167.867188 150.660156 C 166.101562 150.660156 164.660156 149.222656 164.660156 147.460938 C 164.660156 146.984375 164.765625 146.53125 164.953125 146.128906 L 153.648438 138.109375 C 153.488281 138.246094 153.300781 138.378906 153.113281 138.484375 L 159.796875 155.882812 C 160.839844 156.015625 161.691406 156.761719 162.015625 157.746094 Z M 175.804688 152.3125 C 176.097656 152.042969 176.445312 151.859375 176.847656 151.726562 L 175.722656 140.617188 C 174.175781 140.453125 172.945312 139.28125 172.757812 137.765625 L 154.558594 136.566406 C 154.503906 136.726562 154.453125 136.914062 154.371094 137.070312 L 165.675781 145.117188 C 166.265625 144.585938 167.039062 144.238281 167.867188 144.238281 C 169.65625 144.238281 171.074219 145.679688 171.074219 147.460938 C 171.074219 147.914062 170.992188 148.367188 170.804688 148.769531 Z M 191.035156 177.433594 C 190.636719 177.675781 190.210938 177.863281 189.699219 177.886719 L 187.054688 199.253906 C 187.160156 199.28125 187.242188 199.308594 187.347656 199.363281 L 197.34375 186.597656 C 196.941406 186.09375 196.703125 185.453125 196.703125 184.761719 C 196.703125 184.203125 196.835938 183.695312 197.101562 183.269531 Z M 188.445312 177.753906 C 188.367188 177.703125 188.285156 177.675781 188.203125 177.648438 L 173.828125 196.457031 C 174.253906 196.964844 174.519531 197.628906 174.519531 198.324219 C 174.519531 198.457031 174.519531 198.589844 174.496094 198.722656 C 177.355469 199.683594 180.320312 200.429688 183.367188 200.933594 C 183.769531 199.921875 184.703125 199.203125 185.800781 199.09375 Z M 187.214844 176.875 C 187.109375 176.769531 187.027344 176.664062 186.949219 176.527344 L 170.484375 182.230469 C 170.511719 182.335938 170.511719 182.445312 170.511719 182.550781 C 170.511719 183.695312 169.871094 184.65625 168.910156 185.136719 L 171.527344 195.445312 L 171.609375 195.445312 C 172.0625 195.445312 172.464844 195.523438 172.839844 195.710938 Z M 186.546875 175.355469 C 186.519531 175.25 186.519531 175.117188 186.519531 175.011719 C 186.519531 174.851562 186.546875 174.71875 186.574219 174.558594 C 184.945312 173.757812 183.5 172.773438 182.269531 171.601562 C 181.65625 171.015625 181.09375 170.375 180.585938 169.734375 C 180.265625 169.84375 179.917969 169.894531 179.570312 169.894531 C 178.34375 169.894531 177.273438 169.121094 176.847656 168.03125 L 168.347656 169.285156 C 168.347656 170.960938 167.304688 172.398438 165.835938 173.039062 L 167.519531 179.671875 L 167.597656 179.671875 C 168.640625 179.671875 169.550781 180.207031 170.085938 181.03125 Z M 213.566406 171.332031 C 213.351562 171.464844 213.136719 171.574219 212.871094 171.628906 L 214.394531 195.65625 C 215.140625 195.765625 215.808594 196.164062 216.238281 196.75 C 220.890625 194.484375 225.324219 191.503906 229.441406 187.90625 Z M 211.613281 171.707031 C 211.347656 171.679688 211.078125 171.601562 210.839844 171.464844 L 201.832031 182.925781 C 202.261719 183.429688 202.5 184.070312 202.5 184.761719 C 202.5 185.320312 202.339844 185.828125 202.074219 186.253906 L 212.335938 196.085938 C 212.578125 195.925781 212.84375 195.820312 213.136719 195.738281 Z M 201.191406 187.1875 C 200.738281 187.480469 200.175781 187.664062 199.589844 187.664062 C 199.136719 187.664062 198.734375 187.558594 198.332031 187.375 L 188.335938 200.132812 C 188.683594 200.558594 188.898438 201.066406 188.980469 201.625 C 190.929688 201.785156 192.878906 201.867188 194.859375 201.867188 C 200.390625 201.867188 205.84375 200.855469 211.054688 198.960938 C 211.054688 198.800781 211.027344 198.667969 211.027344 198.507812 C 211.027344 197.949219 211.1875 197.441406 211.453125 197.019531 Z M 155.386719 183.882812 C 155.628906 183.882812 155.867188 183.910156 156.109375 183.964844 L 158.191406 179.804688 C 157.683594 179.378906 157.363281 178.714844 157.363281 177.996094 C 157.363281 177.300781 157.65625 176.691406 158.140625 176.238281 L 146.941406 155.347656 L 146.863281 155.375 C 146.808594 156.253906 146.78125 157.1875 146.78125 158.09375 C 146.78125 169.015625 149.5625 177.59375 154.183594 184.148438 C 154.558594 183.988281 154.957031 183.882812 155.386719 183.882812 Z M 157.230469 184.523438 C 157.472656 184.734375 157.683594 184.972656 157.871094 185.269531 L 164.714844 182.898438 C 164.714844 182.792969 164.6875 182.65625 164.6875 182.550781 C 164.6875 181.429688 165.355469 180.445312 166.289062 179.964844 L 164.605469 173.332031 C 164.472656 173.359375 164.339844 173.359375 164.207031 173.359375 C 163.777344 173.359375 163.351562 173.28125 162.949219 173.171875 L 161.425781 176.210938 C 161.90625 176.636719 162.230469 177.277344 162.230469 177.996094 C 162.230469 179.351562 161.132812 180.417969 159.796875 180.417969 C 159.636719 180.417969 159.476562 180.417969 159.316406 180.367188 Z M 158.273438 186.441406 C 158.300781 186.546875 158.300781 186.652344 158.300781 186.789062 C 158.300781 187.398438 158.085938 187.984375 157.765625 188.464844 C 158.273438 189 158.808594 189.53125 159.367188 190.035156 C 162.308594 192.699219 165.648438 194.886719 169.285156 196.617188 C 169.550781 196.246094 169.898438 195.953125 170.300781 195.738281 L 167.679688 185.453125 L 167.601562 185.453125 C 166.558594 185.453125 165.648438 184.894531 165.140625 184.070312 Z M 176.6875 166.777344 C 176.6875 166.699219 176.6875 166.59375 176.714844 166.484375 L 161.585938 160.089844 C 161.535156 160.144531 161.507812 160.195312 161.453125 160.25 L 163.351562 165.207031 C 163.617188 165.125 163.910156 165.097656 164.207031 165.097656 C 166.074219 165.097656 167.652344 166.324219 168.160156 168.03125 Z M 160.382812 160.996094 C 160.089844 161.101562 159.796875 161.15625 159.449219 161.15625 C 158.003906 161.15625 156.804688 159.984375 156.804688 158.519531 C 156.804688 158.359375 156.828125 158.226562 156.828125 158.09375 L 148.304688 154.46875 C 148.226562 154.578125 148.144531 154.65625 148.039062 154.761719 L 159.261719 175.648438 C 159.421875 175.597656 159.609375 175.597656 159.796875 175.597656 C 159.957031 175.597656 160.144531 175.597656 160.277344 175.625 L 161.828125 172.585938 C 160.757812 171.839844 160.0625 170.613281 160.0625 169.230469 C 160.0625 167.710938 160.917969 166.351562 162.175781 165.660156 Z M 157.335938 156.921875 C 157.632812 156.546875 158.03125 156.226562 158.488281 156.042969 L 151.9375 138.9375 C 151.753906 138.992188 151.566406 138.992188 151.378906 138.992188 C 151.085938 138.992188 150.816406 138.964844 150.550781 138.882812 C 149 142.425781 147.878906 146.371094 147.261719 150.738281 C 148.171875 151.085938 148.8125 151.964844 148.8125 152.976562 C 148.8125 153.109375 148.8125 153.21875 148.785156 153.324219 Z M 179.199219 138.191406 C 178.90625 139.28125 178.046875 140.164062 176.980469 140.480469 L 177.996094 150.714844 C 178.90625 147.996094 180.320312 145.570312 182.246094 143.574219 C 184.277344 141.441406 186.894531 139.816406 190.019531 138.910156 Z M 179.199219 138.191406 " fill-opacity="1" fill-rule="evenodd"/></g></svg>